<svg id="visual" viewBox="0 0 900 600" width="900" height="600" xmlns="http://www.w3.org/2000/svg" xmlns:xlink="http://www.w3.org/1999/xlink" version="1.1"><g stroke-width="1" stroke-linejoin="bevel"><path d="M484 292.1L519 345.9L534 291.1Z" fill="#b0deec" stroke="#b0deec"></path><path d="M426 376.9L520 408.6L519 345.9Z" fill="#c3f0fe" stroke="#c3f0fe"></path><path d="M519 345.9L590 364.9L534 291.1Z" fill="#c0edfb" stroke="#c0edfb"></path><path d="M520 408.6L590 364.9L519 345.9Z" fill="#a9d8e6" stroke="#a9d8e6"></path><path d="M484 292.1L426 376.9L519 345.9Z" fill="#b3e1ef" stroke="#b3e1ef"></path><path d="M619 161.4L513 207.4L534 291.1Z" fill="#addbe9" stroke="#addbe9"></path><path d="M534 291.1L513 207.4L484 292.1Z" fill="#b9e7f5" stroke="#b9e7f5"></path><path d="M484 292.1L365 245.1L426 376.9Z" fill="#addbe9" stroke="#addbe9"></path><path d="M513 207.4L489 205.4L484 292.1Z" fill="#bdeaf8" stroke="#bdeaf8"></path><path d="M590 364.9L650 287.1L534 291.1Z" fill="#c3f0fe" stroke="#c3f0fe"></path><path d="M489 205.4L365 245.1L484 292.1Z" fill="#b0deec" stroke="#b0deec"></path><path d="M365 245.1L353 354.9L426 376.9Z" fill="#b9e7f5" stroke="#b9e7f5"></path><path d="M426 376.9L418 450.6L520 408.6Z" fill="#b9e7f5" stroke="#b9e7f5"></path><path d="M353 354.9L383 416.6L426 376.9Z" fill="#c0edfb" stroke="#c0edfb"></path><path d="M383 416.6L418 450.6L426 376.9Z" fill="#b6e4f2" stroke="#b6e4f2"></path><path d="M624 475.3L590 364.9L520 408.6Z" fill="#b0deec" stroke="#b0deec"></path><path d="M624 475.3L651 429.6L590 364.9Z" fill="#b0deec" stroke="#b0deec"></path><path d="M590 364.9L696 393.6L650 287.1Z" fill="#a9d8e6" stroke="#a9d8e6"></path><path d="M650 287.1L619 161.4L534 291.1Z" fill="#b3e1ef" stroke="#b3e1ef"></path><path d="M513 207.4L547 114.7L489 205.4Z" fill="#addbe9" stroke="#addbe9"></path><path d="M489 205.4L375 132.4L365 245.1Z" fill="#a6d5e3" stroke="#a6d5e3"></path><path d="M515 550.3L624 475.3L520 408.6Z" fill="#c3f0fe" stroke="#c3f0fe"></path><path d="M619 161.4L547 114.7L513 207.4Z" fill="#b6e4f2" stroke="#b6e4f2"></path><path d="M738 507.3L696 393.6L651 429.6Z" fill="#bdeaf8" stroke="#bdeaf8"></path><path d="M651 429.6L696 393.6L590 364.9Z" fill="#b6e4f2" stroke="#b6e4f2"></path><path d="M650 287.1L711 277.1L619 161.4Z" fill="#bdeaf8" stroke="#bdeaf8"></path><path d="M383 416.6L420 497.3L418 450.6Z" fill="#a9d8e6" stroke="#a9d8e6"></path><path d="M418 450.6L420 497.3L520 408.6Z" fill="#a9d8e6" stroke="#a9d8e6"></path><path d="M351 551.3L420 497.3L282 491.3Z" fill="#bdeaf8" stroke="#bdeaf8"></path><path d="M724 354.9L711 277.1L650 287.1Z" fill="#c3f0fe" stroke="#c3f0fe"></path><path d="M696 393.6L724 354.9L650 287.1Z" fill="#b6e4f2" stroke="#b6e4f2"></path><path d="M448 79.7L375 132.4L489 205.4Z" fill="#a6d5e3" stroke="#a6d5e3"></path><path d="M365 245.1L289 258.1L353 354.9Z" fill="#c3f0fe" stroke="#c3f0fe"></path><path d="M258 170.4L289 258.1L365 245.1Z" fill="#b9e7f5" stroke="#b9e7f5"></path><path d="M353 354.9L292 427.6L383 416.6Z" fill="#a3d2e0" stroke="#a3d2e0"></path><path d="M420 497.3L515 550.3L520 408.6Z" fill="#b9e7f5" stroke="#b9e7f5"></path><path d="M547 114.7L448 79.7L489 205.4Z" fill="#c0edfb" stroke="#c0edfb"></path><path d="M248 380.9L292 427.6L353 354.9Z" fill="#a9d8e6" stroke="#a9d8e6"></path><path d="M462 600L517 600L515 550.3Z" fill="#bdeaf8" stroke="#bdeaf8"></path><path d="M711 277.1L707 143.4L619 161.4Z" fill="#c3f0fe" stroke="#c3f0fe"></path><path d="M619 161.4L667 57.7L547 114.7Z" fill="#addbe9" stroke="#addbe9"></path><path d="M547 114.7L573 0L448 79.7Z" fill="#a3d2e0" stroke="#a3d2e0"></path><path d="M789 158.4L707 143.4L711 277.1Z" fill="#a6d5e3" stroke="#a6d5e3"></path><path d="M366 0L333 113.7L375 132.4Z" fill="#c0edfb" stroke="#c0edfb"></path><path d="M375 132.4L258 170.4L365 245.1Z" fill="#bdeaf8" stroke="#bdeaf8"></path><path d="M289 258.1L248 380.9L353 354.9Z" fill="#b9e7f5" stroke="#b9e7f5"></path><path d="M204 271.1L248 380.9L289 258.1Z" fill="#a6d5e3" stroke="#a6d5e3"></path><path d="M818 350.9L780 295.1L724 354.9Z" fill="#b9e7f5" stroke="#b9e7f5"></path><path d="M724 354.9L780 295.1L711 277.1Z" fill="#c3f0fe" stroke="#c3f0fe"></path><path d="M282 491.3L383 416.6L292 427.6Z" fill="#a6d5e3" stroke="#a6d5e3"></path><path d="M282 491.3L420 497.3L383 416.6Z" fill="#b3e1ef" stroke="#b3e1ef"></path><path d="M462 600L515 550.3L420 497.3Z" fill="#a3d2e0" stroke="#a3d2e0"></path><path d="M515 550.3L590 600L624 475.3Z" fill="#c3f0fe" stroke="#c3f0fe"></path><path d="M624 475.3L738 507.3L651 429.6Z" fill="#a3d2e0" stroke="#a3d2e0"></path><path d="M203 436.6L282 491.3L292 427.6Z" fill="#b3e1ef" stroke="#b3e1ef"></path><path d="M333 113.7L258 170.4L375 132.4Z" fill="#b0deec" stroke="#b0deec"></path><path d="M351 551.3L462 600L420 497.3Z" fill="#c0edfb" stroke="#c0edfb"></path><path d="M517 600L590 600L515 550.3Z" fill="#bdeaf8" stroke="#bdeaf8"></path><path d="M798 438.6L818 350.9L724 354.9Z" fill="#a3d2e0" stroke="#a3d2e0"></path><path d="M590 600L738 507.3L624 475.3Z" fill="#c3f0fe" stroke="#c3f0fe"></path><path d="M736 114.7L667 57.7L707 143.4Z" fill="#c3f0fe" stroke="#c3f0fe"></path><path d="M707 143.4L667 57.7L619 161.4Z" fill="#bdeaf8" stroke="#bdeaf8"></path><path d="M789 158.4L736 114.7L707 143.4Z" fill="#b9e7f5" stroke="#b9e7f5"></path><path d="M258 170.4L204 271.1L289 258.1Z" fill="#b6e4f2" stroke="#b6e4f2"></path><path d="M248 380.9L203 436.6L292 427.6Z" fill="#b6e4f2" stroke="#b6e4f2"></path><path d="M798 438.6L724 354.9L696 393.6Z" fill="#a3d2e0" stroke="#a3d2e0"></path><path d="M780 295.1L789 158.4L711 277.1Z" fill="#bdeaf8" stroke="#bdeaf8"></path><path d="M738 507.3L798 438.6L696 393.6Z" fill="#b3e1ef" stroke="#b3e1ef"></path><path d="M900 294.1L789 158.4L780 295.1Z" fill="#addbe9" stroke="#addbe9"></path><path d="M683 0L599 0L667 57.7Z" fill="#c3f0fe" stroke="#c3f0fe"></path><path d="M599 0L573 0L547 114.7Z" fill="#a3d2e0" stroke="#a3d2e0"></path><path d="M448 79.7L366 0L375 132.4Z" fill="#bdeaf8" stroke="#bdeaf8"></path><path d="M683 0L667 57.7L736 114.7Z" fill="#bdeaf8" stroke="#bdeaf8"></path><path d="M667 57.7L599 0L547 114.7Z" fill="#addbe9" stroke="#addbe9"></path><path d="M573 0L414 0L448 79.7Z" fill="#b6e4f2" stroke="#b6e4f2"></path><path d="M333 113.7L293 49.7L258 170.4Z" fill="#addbe9" stroke="#addbe9"></path><path d="M289 600L348 600L351 551.3Z" fill="#b0deec" stroke="#b0deec"></path><path d="M351 551.3L348 600L462 600Z" fill="#bdeaf8" stroke="#bdeaf8"></path><path d="M167 365.9L203 436.6L248 380.9Z" fill="#c0edfb" stroke="#c0edfb"></path><path d="M282 491.3L289 600L351 551.3Z" fill="#b9e7f5" stroke="#b9e7f5"></path><path d="M366 0L293 49.7L333 113.7Z" fill="#a3d2e0" stroke="#a3d2e0"></path><path d="M258 170.4L191 136.4L204 271.1Z" fill="#bdeaf8" stroke="#bdeaf8"></path><path d="M414 0L366 0L448 79.7Z" fill="#c3f0fe" stroke="#c3f0fe"></path><path d="M900 449.6L900 336.9L818 350.9Z" fill="#b9e7f5" stroke="#b9e7f5"></path><path d="M738 507.3L812 482.3L798 438.6Z" fill="#b9e7f5" stroke="#b9e7f5"></path><path d="M756 600L812 482.3L738 507.3Z" fill="#b6e4f2" stroke="#b6e4f2"></path><path d="M204 271.1L167 365.9L248 380.9Z" fill="#c0edfb" stroke="#c0edfb"></path><path d="M797 0L683 0L736 114.7Z" fill="#b0deec" stroke="#b0deec"></path><path d="M157 545.3L289 600L282 491.3Z" fill="#c3f0fe" stroke="#c3f0fe"></path><path d="M193 113.7L191 136.4L258 170.4Z" fill="#b6e4f2" stroke="#b6e4f2"></path><path d="M204 271.1L117 275.1L167 365.9Z" fill="#a6d5e3" stroke="#a6d5e3"></path><path d="M293 49.7L193 113.7L258 170.4Z" fill="#b9e7f5" stroke="#b9e7f5"></path><path d="M97 209.4L117 275.1L204 271.1Z" fill="#c3f0fe" stroke="#c3f0fe"></path><path d="M256 0L193 113.7L293 49.7Z" fill="#a6d5e3" stroke="#a6d5e3"></path><path d="M590 600L756 600L738 507.3Z" fill="#bdeaf8" stroke="#bdeaf8"></path><path d="M818 350.9L900 294.1L780 295.1Z" fill="#b3e1ef" stroke="#b3e1ef"></path><path d="M789 158.4L840 60.7L736 114.7Z" fill="#c3f0fe" stroke="#c3f0fe"></path><path d="M900 336.9L900 294.1L818 350.9Z" fill="#b3e1ef" stroke="#b3e1ef"></path><path d="M900 449.6L798 438.6L812 482.3Z" fill="#c3f0fe" stroke="#c3f0fe"></path><path d="M900 449.6L818 350.9L798 438.6Z" fill="#addbe9" stroke="#addbe9"></path><path d="M97 209.4L204 271.1L191 136.4Z" fill="#b0deec" stroke="#b0deec"></path><path d="M167 365.9L122 399.6L203 436.6Z" fill="#a6d5e3" stroke="#a6d5e3"></path><path d="M203 436.6L157 545.3L282 491.3Z" fill="#a9d8e6" stroke="#a9d8e6"></path><path d="M105 344.9L122 399.6L167 365.9Z" fill="#b0deec" stroke="#b0deec"></path><path d="M366 0L256 0L293 49.7Z" fill="#b0deec" stroke="#b0deec"></path><path d="M117 275.1L105 344.9L167 365.9Z" fill="#b6e4f2" stroke="#b6e4f2"></path><path d="M900 481.3L900 449.6L812 482.3Z" fill="#c0edfb" stroke="#c0edfb"></path><path d="M900 140.4L840 60.7L789 158.4Z" fill="#a9d8e6" stroke="#a9d8e6"></path><path d="M163 600L157 545.3L125 600Z" fill="#b9e7f5" stroke="#b9e7f5"></path><path d="M102 526.3L157 545.3L203 436.6Z" fill="#a6d5e3" stroke="#a6d5e3"></path><path d="M848 600L900 481.3L812 482.3Z" fill="#c3f0fe" stroke="#c3f0fe"></path><path d="M101 89.7L97 209.4L191 136.4Z" fill="#bdeaf8" stroke="#bdeaf8"></path><path d="M117 275.1L0 367.9L105 344.9Z" fill="#a3d2e0" stroke="#a3d2e0"></path><path d="M101 89.7L191 136.4L193 113.7Z" fill="#b0deec" stroke="#b0deec"></path><path d="M840 60.7L797 0L736 114.7Z" fill="#b9e7f5" stroke="#b9e7f5"></path><path d="M900 294.1L900 140.4L789 158.4Z" fill="#b0deec" stroke="#b0deec"></path><path d="M840 60.7L900 0L797 0Z" fill="#bdeaf8" stroke="#bdeaf8"></path><path d="M756 600L848 600L812 482.3Z" fill="#addbe9" stroke="#addbe9"></path><path d="M157 545.3L163 600L289 600Z" fill="#bdeaf8" stroke="#bdeaf8"></path><path d="M102 526.3L203 436.6L122 399.6Z" fill="#addbe9" stroke="#addbe9"></path><path d="M0 367.9L122 399.6L105 344.9Z" fill="#c3f0fe" stroke="#c3f0fe"></path><path d="M0 459.6L102 526.3L122 399.6Z" fill="#c0edfb" stroke="#c0edfb"></path><path d="M900 140.4L900 67.7L840 60.7Z" fill="#bdeaf8" stroke="#bdeaf8"></path><path d="M147 0L101 89.7L193 113.7Z" fill="#b6e4f2" stroke="#b6e4f2"></path><path d="M102 526.3L125 600L157 545.3Z" fill="#a9d8e6" stroke="#a9d8e6"></path><path d="M256 0L147 0L193 113.7Z" fill="#c3f0fe" stroke="#c3f0fe"></path><path d="M848 600L900 600L900 481.3Z" fill="#a6d5e3" stroke="#a6d5e3"></path><path d="M900 67.7L900 0L840 60.7Z" fill="#a6d5e3" stroke="#a6d5e3"></path><path d="M0 220.1L0 367.9L117 275.1Z" fill="#b3e1ef" stroke="#b3e1ef"></path><path d="M102 526.3L0 600L125 600Z" fill="#b0deec" stroke="#b0deec"></path><path d="M0 220.1L117 275.1L97 209.4Z" fill="#a3d2e0" stroke="#a3d2e0"></path><path d="M0 190.4L97 209.4L0 114.7Z" fill="#b3e1ef" stroke="#b3e1ef"></path><path d="M0 190.4L0 220.1L97 209.4Z" fill="#bdeaf8" stroke="#bdeaf8"></path><path d="M0 114.7L97 209.4L101 89.7Z" fill="#b0deec" stroke="#b0deec"></path><path d="M0 367.9L0 459.6L122 399.6Z" fill="#a3d2e0" stroke="#a3d2e0"></path><path d="M0 459.6L0 497.3L102 526.3Z" fill="#b6e4f2" stroke="#b6e4f2"></path><path d="M53 0L0 114.7L101 89.7Z" fill="#b3e1ef" stroke="#b3e1ef"></path><path d="M147 0L53 0L101 89.7Z" fill="#bdeaf8" stroke="#bdeaf8"></path><path d="M0 497.3L0 600L102 526.3Z" fill="#b3e1ef" stroke="#b3e1ef"></path><path d="M53 0L0 0L0 114.7Z" fill="#addbe9" stroke="#addbe9"></path></g></svg>