<svg id="visual" viewBox="0 0 900 600" width="900" height="600" xmlns="http://www.w3.org/2000/svg" xmlns:xlink="http://www.w3.org/1999/xlink" version="1.1"><path d="M0 145L13.7 142C27.3 139 54.7 133 82 127C109.3 121 136.7 115 163.8 124C191 133 218 157 245.2 155C272.3 153 299.7 125 327 107C354.3 89 381.7 81 409 91C436.3 101 463.7 129 491 163C518.3 197 545.7 237 573 233C600.3 229 627.7 181 654.8 177C682 173 709 213 736.2 219C763.3 225 790.7 197 818 173C845.3 149 872.7 129 886.3 119L900 109L900 0L886.3 0C872.7 0 845.3 0 818 0C790.7 0 763.3 0 736.2 0C709 0 682 0 654.8 0C627.7 0 600.3 0 573 0C545.7 0 518.3 0 491 0C463.7 0 436.3 0 409 0C381.7 0 354.3 0 327 0C299.7 0 272.3 0 245.2 0C218 0 191 0 163.8 0C136.7 0 109.3 0 82 0C54.7 0 27.3 0 13.7 0L0 0Z" fill="#a9e9fd"></path><path d="M0 187L13.7 193C27.3 199 54.7 211 82 214C109.3 217 136.7 211 163.8 217C191 223 218 241 245.2 232C272.3 223 299.7 187 327 173C354.3 159 381.7 167 409 178C436.3 189 463.7 203 491 234C518.3 265 545.7 313 573 312C600.3 311 627.7 261 654.8 258C682 255 709 299 736.2 298C763.3 297 790.7 251 818 223C845.3 195 872.7 185 886.3 180L900 175L900 107L886.3 117C872.7 127 845.3 147 818 171C790.7 195 763.3 223 736.2 217C709 211 682 171 654.8 175C627.7 179 600.3 227 573 231C545.7 235 518.3 195 491 161C463.7 127 436.3 99 409 89C381.7 79 354.3 87 327 105C299.7 123 272.3 151 245.2 153C218 155 191 131 163.8 122C136.7 113 109.3 119 82 125C54.7 131 27.3 137 13.7 140L0 143Z" fill="#b6edfd"></path><path d="M0 355L13.7 373C27.3 391 54.7 427 82 439C109.3 451 136.7 439 163.8 425C191 411 218 395 245.2 383C272.3 371 299.7 363 327 367C354.3 371 381.7 387 409 384C436.3 381 463.7 359 491 372C518.3 385 545.7 433 573 439C600.3 445 627.7 409 654.8 403C682 397 709 421 736.2 428C763.3 435 790.7 425 818 415C845.3 405 872.7 395 886.3 390L900 385L900 173L886.3 178C872.7 183 845.3 193 818 221C790.7 249 763.3 295 736.2 296C709 297 682 253 654.8 256C627.7 259 600.3 309 573 310C545.7 311 518.3 263 491 232C463.7 201 436.3 187 409 176C381.7 165 354.3 157 327 171C299.7 185 272.3 221 245.2 230C218 239 191 221 163.8 215C136.7 209 109.3 215 82 212C54.7 209 27.3 197 13.7 191L0 185Z" fill="#c3f0fe"></path><path d="M0 433L13.7 450C27.3 467 54.7 501 82 518C109.3 535 136.7 535 163.8 521C191 507 218 479 245.2 470C272.3 461 299.7 471 327 478C354.3 485 381.7 489 409 483C436.3 477 463.7 461 491 468C518.3 475 545.7 505 573 508C600.3 511 627.7 487 654.8 489C682 491 709 519 736.2 533C763.3 547 790.7 547 818 532C845.3 517 872.7 487 886.3 472L900 457L900 383L886.3 388C872.7 393 845.3 403 818 413C790.7 423 763.3 433 736.2 426C709 419 682 395 654.8 401C627.7 407 600.3 443 573 437C545.7 431 518.3 383 491 370C463.7 357 436.3 379 409 382C381.7 385 354.3 369 327 365C299.7 361 272.3 369 245.2 381C218 393 191 409 163.8 423C136.7 437 109.3 449 82 437C54.7 425 27.3 389 13.7 371L0 353Z" fill="#ccf3fd"></path><path d="M0 601L13.7 601C27.3 601 54.7 601 82 601C109.3 601 136.7 601 163.8 601C191 601 218 601 245.2 601C272.3 601 299.7 601 327 601C354.3 601 381.7 601 409 601C436.3 601 463.7 601 491 601C518.3 601 545.7 601 573 601C600.3 601 627.7 601 654.8 601C682 601 709 601 736.2 601C763.3 601 790.7 601 818 601C845.3 601 872.7 601 886.3 601L900 601L900 455L886.3 470C872.7 485 845.3 515 818 530C790.7 545 763.3 545 736.2 531C709 517 682 489 654.8 487C627.7 485 600.3 509 573 506C545.7 503 518.3 473 491 466C463.7 459 436.3 475 409 481C381.7 487 354.3 483 327 476C299.7 469 272.3 459 245.2 468C218 477 191 505 163.8 519C136.7 533 109.3 533 82 516C54.7 499 27.3 465 13.7 448L0 431Z" fill="#d6f6fc"></path></svg>